<svg width="655" height="647" viewBox="0 0 655 647" fill="none" xmlns="http://www.w3.org/2000/svg">
<g opacity="0.4">
<path d="M493.585 468.211L521.641 451.707L549.697 467.386L521.641 483.889L493.585 468.211Z" fill="white"/>
<path d="M498.536 468.549L521.641 455.008L544.746 467.872L521.641 481.413L498.536 468.549Z" fill="#797B84"/>
<path d="M521.642 468.211V455.008L544.746 467.872L521.642 481.413V468.211Z" fill="#393A4A"/>
<path d="M493.585 468.211V501.218L521.641 517.721V483.889L493.585 468.211Z" fill="#BDBDBD"/>
<path d="M521.642 483.89L549.697 467.386V500.558L521.642 517.722V483.89Z" fill="#F3F3F3"/>
<path d="M449.287 491.392L477.343 474.888L505.399 490.567L477.343 507.07L449.287 491.392Z" fill="white"/>
<path d="M454.238 491.73L477.343 478.189L500.447 491.053L477.343 504.594L454.238 491.73Z" fill="#797B84"/>
<path d="M477.342 491.391V478.189L500.447 491.053L477.342 504.594V491.391Z" fill="#393A4A"/>
<path d="M449.287 491.392V524.399L477.343 540.902V507.07L449.287 491.392Z" fill="#BDBDBD"/>
<path d="M477.342 507.07L505.398 490.567V523.739L477.342 540.902V507.07Z" fill="#F3F3F3"/>
<path d="M538.093 491.392L566.149 474.888L594.205 490.567L566.149 507.07L538.093 491.392Z" fill="white"/>
<path d="M543.044 491.73L566.149 478.189L589.254 491.053L566.149 504.594L543.044 491.73Z" fill="#797B84"/>
<path d="M566.149 491.391V478.189L589.254 491.053L566.149 504.594V491.391Z" fill="#393A4A"/>
<path d="M538.093 491.392V524.399L566.149 540.902V507.07L538.093 491.392Z" fill="#BDBDBD"/>
<path d="M566.149 507.07L594.205 490.567V523.739L566.149 540.902V507.07Z" fill="#F3F3F3"/>
<path d="M493.586 517.355L521.642 500.851L549.697 516.53L521.642 533.033L493.586 517.355Z" fill="white"/>
<path d="M498.537 517.693L521.641 504.152L544.746 517.016L521.641 530.557L498.537 517.693Z" fill="#797B84"/>
<path d="M521.642 517.354V504.152L544.746 517.016L521.642 530.557V517.354Z" fill="#393A4A"/>
<path d="M493.586 517.355V550.362L521.642 566.865V533.033L493.586 517.355Z" fill="#BDBDBD"/>
<path d="M521.642 533.033L549.697 516.53V549.702L521.642 566.865V533.033Z" fill="#F3F3F3"/>
<path fill-rule="evenodd" clip-rule="evenodd" d="M521.275 530.524L454.641 492.043L392.516 192.08H654.926L589.091 491.116L521.275 530.524Z" fill="url(#paint0_linear_201_5)" fill-opacity="0.8"/>
</g>
<g opacity="0.4">
<path d="M298.065 276.821L326.121 260.318L354.176 275.996L326.121 292.499L298.065 276.821Z" fill="white"/>
<path d="M303.016 277.159L326.121 263.618L349.226 276.482L326.121 290.023L303.016 277.159Z" fill="#797B84"/>
<path d="M326.121 276.821V263.618L349.225 276.482L326.121 290.023V276.821Z" fill="#393A4A"/>
<path d="M298.065 276.821V309.828L326.121 326.331V292.499L298.065 276.821Z" fill="#BDBDBD"/>
<path d="M326.121 292.499L354.176 275.996V309.168L326.121 326.332V292.499Z" fill="#F3F3F3"/>
<path d="M253.766 300.002L281.822 283.499L309.878 299.177L281.822 315.68L253.766 300.002Z" fill="white"/>
<path d="M258.717 300.34L281.822 286.799L304.927 299.663L281.822 313.204L258.717 300.34Z" fill="#797B84"/>
<path d="M281.822 300.001V286.799L304.927 299.663L281.822 313.204V300.001Z" fill="#393A4A"/>
<path d="M253.766 300.002V333.008L281.822 349.512V315.68L253.766 300.002Z" fill="#BDBDBD"/>
<path d="M281.822 315.68L309.878 299.177V332.349L281.822 349.512V315.68Z" fill="#F3F3F3"/>
<path d="M342.572 300.002L370.628 283.499L398.684 299.177L370.628 315.68L342.572 300.002Z" fill="white"/>
<path d="M347.523 300.34L370.628 286.799L393.733 299.663L370.628 313.204L347.523 300.34Z" fill="#797B84"/>
<path d="M370.628 300.001V286.799L393.733 299.663L370.628 313.204V300.001Z" fill="#393A4A"/>
<path d="M342.572 300.002V333.008L370.628 349.512V315.68L342.572 300.002Z" fill="#BDBDBD"/>
<path d="M370.628 315.68L398.684 299.177V332.349L370.628 349.512V315.68Z" fill="#F3F3F3"/>
<path d="M298.065 325.965L326.121 309.461L354.176 325.139L326.121 341.643L298.065 325.965Z" fill="white"/>
<path d="M303.016 326.303L326.121 312.762L349.226 325.626L326.121 339.168L303.016 326.303Z" fill="#797B84"/>
<path d="M326.121 325.965V312.762L349.225 325.626L326.121 339.168V325.965Z" fill="#393A4A"/>
<path d="M298.065 325.965V358.972L326.121 375.475V341.643L298.065 325.965Z" fill="#BDBDBD"/>
<path d="M326.121 341.643L354.176 325.14V358.312L326.121 375.475V341.643Z" fill="#F3F3F3"/>
<path fill-rule="evenodd" clip-rule="evenodd" d="M325.754 339.133L259.12 300.653L196.995 0.689636H459.405L393.571 299.725L325.754 339.133Z" fill="url(#paint1_linear_201_5)" fill-opacity="0.8"/>
</g>
<g opacity="0.4">
<path d="M295.311 382.843L323.367 366.339L351.423 382.018L323.367 398.521L295.311 382.843Z" fill="white"/>
<path d="M300.262 383.181L323.367 369.64L346.472 382.504L323.367 396.045L300.262 383.181Z" fill="#797B84"/>
<path d="M323.366 382.842V369.64L346.471 382.504L323.366 396.045V382.842Z" fill="#393A4A"/>
<path d="M295.311 382.843V415.849L323.367 432.353V398.521L295.311 382.843Z" fill="#BDBDBD"/>
<path d="M323.366 398.521L351.422 382.018V415.19L323.366 432.353V398.521Z" fill="#F3F3F3"/>
<path d="M251.012 406.024L279.068 389.52L307.124 405.198L279.068 421.702L251.012 406.024Z" fill="white"/>
<path d="M255.963 406.362L279.068 392.821L302.173 405.685L279.068 419.226L255.963 406.362Z" fill="#797B84"/>
<path d="M279.068 406.023V392.821L302.173 405.685L279.068 419.226V406.023Z" fill="#393A4A"/>
<path d="M251.012 406.024V439.031L279.068 455.534V421.702L251.012 406.024Z" fill="#BDBDBD"/>
<path d="M279.068 421.702L307.124 405.199V438.37L279.068 455.534V421.702Z" fill="#F3F3F3"/>
<path d="M339.819 406.024L367.874 389.52L395.93 405.198L367.874 421.702L339.819 406.024Z" fill="white"/>
<path d="M344.77 406.362L367.874 392.821L390.979 405.685L367.874 419.226L344.77 406.362Z" fill="#797B84"/>
<path d="M367.874 406.023V392.821L390.979 405.685L367.874 419.226V406.023Z" fill="#393A4A"/>
<path d="M339.819 406.024V439.031L367.874 455.534V421.702L339.819 406.024Z" fill="#BDBDBD"/>
<path d="M367.874 421.702L395.93 405.199V438.37L367.874 455.534V421.702Z" fill="#F3F3F3"/>
<path d="M295.311 431.986L323.367 415.483L351.423 431.161L323.367 447.665L295.311 431.986Z" fill="white"/>
<path d="M300.262 432.325L323.367 418.783L346.472 431.648L323.367 445.189L300.262 432.325Z" fill="#797B84"/>
<path d="M323.366 431.986V418.783L346.471 431.648L323.366 445.189V431.986Z" fill="#393A4A"/>
<path d="M295.311 431.987V464.993L323.367 481.497V447.665L295.311 431.987Z" fill="#BDBDBD"/>
<path d="M323.366 447.665L351.422 431.161V464.333L323.366 481.497V447.665Z" fill="#F3F3F3"/>
<path fill-rule="evenodd" clip-rule="evenodd" d="M323 445.155L256.366 406.675L194.241 106.712H456.651L390.817 405.747L323 445.155Z" fill="url(#paint2_linear_201_5)" fill-opacity="0.8"/>
</g>
<g opacity="0.4">
<path d="M112.182 338.782L140.238 322.278L168.293 337.956L140.238 354.46L112.182 338.782Z" fill="white"/>
<path d="M117.133 339.12L140.238 325.578L163.343 338.443L140.238 351.984L117.133 339.12Z" fill="#797B84"/>
<path d="M140.238 338.781V325.578L163.342 338.443L140.238 351.984V338.781Z" fill="#393A4A"/>
<path d="M112.182 338.781V371.788L140.238 388.292V354.459L112.182 338.781Z" fill="#BDBDBD"/>
<path d="M140.238 354.46L168.294 337.956V371.128L140.238 388.292V354.46Z" fill="#F3F3F3"/>
<path d="M67.8834 361.963L95.9393 345.459L123.995 361.137L95.9393 377.641L67.8834 361.963Z" fill="white"/>
<path d="M72.8345 362.301L95.9393 348.76L119.044 361.624L95.9393 375.165L72.8345 362.301Z" fill="#797B84"/>
<path d="M95.9395 361.963V348.76L119.044 361.624L95.9395 375.165V361.963Z" fill="#393A4A"/>
<path d="M67.8834 361.963V394.97L95.9393 411.473V377.641L67.8834 361.963Z" fill="#BDBDBD"/>
<path d="M95.9395 377.641L123.995 361.138V394.31L95.9395 411.473V377.641Z" fill="#F3F3F3"/>
<path d="M156.69 361.963L184.745 345.459L212.801 361.137L184.745 377.641L156.69 361.963Z" fill="white"/>
<path d="M161.641 362.301L184.746 348.76L207.85 361.624L184.746 375.165L161.641 362.301Z" fill="#797B84"/>
<path d="M184.745 361.963V348.76L207.85 361.624L184.745 375.165V361.963Z" fill="#393A4A"/>
<path d="M156.69 361.963V394.97L184.745 411.473V377.641L156.69 361.963Z" fill="#BDBDBD"/>
<path d="M184.745 377.641L212.801 361.138V394.31L184.745 411.473V377.641Z" fill="#F3F3F3"/>
<path d="M112.182 387.926L140.238 371.422L168.293 387.1L140.238 403.604L112.182 387.926Z" fill="white"/>
<path d="M117.133 388.264L140.238 374.723L163.343 387.587L140.238 401.128L117.133 388.264Z" fill="#797B84"/>
<path d="M140.238 387.925V374.723L163.342 387.587L140.238 401.128V387.925Z" fill="#393A4A"/>
<path d="M112.182 387.926V420.933L140.238 437.436V403.604L112.182 387.926Z" fill="#BDBDBD"/>
<path d="M140.238 403.604L168.294 387.101V420.273L140.238 437.436V403.604Z" fill="#F3F3F3"/>
<path fill-rule="evenodd" clip-rule="evenodd" d="M139.871 401.094L73.2378 362.614L11.1125 62.6506H273.522L207.688 361.686L139.871 401.094Z" fill="url(#paint3_linear_201_5)" fill-opacity="0.8"/>
</g>
<g opacity="0.4">
<path d="M467.425 338.781L495.48 322.277L523.536 337.955L495.48 354.459L467.425 338.781Z" fill="white"/>
<path d="M472.375 339.119L495.48 325.578L518.585 338.442L495.48 351.983L472.375 339.119Z" fill="#797B84"/>
<path d="M495.48 338.78V325.578L518.585 338.442L495.48 351.983V338.78Z" fill="#393A4A"/>
<path d="M467.424 338.78V371.787L495.48 388.291V354.459L467.424 338.78Z" fill="#BDBDBD"/>
<path d="M495.48 354.459L523.536 337.956V371.128L495.48 388.291V354.459Z" fill="#F3F3F3"/>
<path d="M423.126 361.963L451.182 345.459L479.238 361.137L451.182 377.641L423.126 361.963Z" fill="white"/>
<path d="M428.077 362.301L451.182 348.76L474.287 361.624L451.182 375.165L428.077 362.301Z" fill="#797B84"/>
<path d="M451.182 361.963V348.76L474.286 361.624L451.182 375.165V361.963Z" fill="#393A4A"/>
<path d="M423.126 361.963V394.97L451.182 411.473V377.641L423.126 361.963Z" fill="#BDBDBD"/>
<path d="M451.182 377.641L479.237 361.138V394.31L451.182 411.473V377.641Z" fill="#F3F3F3"/>
<path d="M511.932 361.963L539.988 345.459L568.044 361.138L539.988 377.641L511.932 361.963Z" fill="white"/>
<path d="M516.883 362.301L539.988 348.76L563.093 361.624L539.988 375.165L516.883 362.301Z" fill="#797B84"/>
<path d="M539.988 361.963V348.76L563.092 361.624L539.988 375.165V361.963Z" fill="#393A4A"/>
<path d="M511.932 361.963V394.97L539.988 411.473V377.641L511.932 361.963Z" fill="#BDBDBD"/>
<path d="M539.988 377.641L568.043 361.138V394.31L539.988 411.473V377.641Z" fill="#F3F3F3"/>
<path d="M467.425 387.926L495.48 371.422L523.536 387.101L495.48 403.604L467.425 387.926Z" fill="white"/>
<path d="M472.375 388.264L495.48 374.723L518.585 387.587L495.48 401.128L472.375 388.264Z" fill="#797B84"/>
<path d="M495.48 387.925V374.723L518.585 387.587L495.48 401.128V387.925Z" fill="#393A4A"/>
<path d="M467.424 387.926V420.933L495.48 437.436V403.604L467.424 387.926Z" fill="#BDBDBD"/>
<path d="M495.48 403.604L523.536 387.101V420.273L495.48 437.436V403.604Z" fill="#F3F3F3"/>
<path fill-rule="evenodd" clip-rule="evenodd" d="M495.114 401.094L428.48 362.614L366.355 62.6506H628.764L562.93 361.686L495.114 401.094Z" fill="url(#paint4_linear_201_5)" fill-opacity="0.8"/>
</g>
<g opacity="0.4">
<path d="M101.167 468.211L129.222 451.707L157.278 467.386L129.222 483.889L101.167 468.211Z" fill="white"/>
<path d="M106.118 468.549L129.222 455.008L152.327 467.872L129.222 481.413L106.118 468.549Z" fill="#797B84"/>
<path d="M129.222 468.211V455.008L152.327 467.872L129.222 481.413V468.211Z" fill="#393A4A"/>
<path d="M101.167 468.211V501.218L129.222 517.721V483.889L101.167 468.211Z" fill="#BDBDBD"/>
<path d="M129.222 483.89L157.278 467.386V500.558L129.222 517.722V483.89Z" fill="#F3F3F3"/>
<path d="M56.8682 491.392L84.924 474.888L112.98 490.567L84.924 507.07L56.8682 491.392Z" fill="white"/>
<path d="M61.8191 491.73L84.9239 478.189L108.029 491.053L84.9239 504.594L61.8191 491.73Z" fill="#797B84"/>
<path d="M84.924 491.391V478.189L108.029 491.053L84.924 504.594V491.391Z" fill="#393A4A"/>
<path d="M56.8682 491.392V524.399L84.924 540.902V507.07L56.8682 491.392Z" fill="#BDBDBD"/>
<path d="M84.924 507.07L112.98 490.567V523.739L84.924 540.902V507.07Z" fill="#F3F3F3"/>
<path d="M145.674 491.392L173.73 474.888L201.786 490.567L173.73 507.07L145.674 491.392Z" fill="white"/>
<path d="M150.625 491.73L173.73 478.189L196.835 491.053L173.73 504.594L150.625 491.73Z" fill="#797B84"/>
<path d="M173.73 491.391V478.189L196.835 491.053L173.73 504.594V491.391Z" fill="#393A4A"/>
<path d="M145.674 491.392V524.399L173.73 540.902V507.07L145.674 491.392Z" fill="#BDBDBD"/>
<path d="M173.73 507.07L201.786 490.567V523.739L173.73 540.902V507.07Z" fill="#F3F3F3"/>
<path d="M101.167 517.355L129.222 500.851L157.278 516.53L129.222 533.033L101.167 517.355Z" fill="white"/>
<path d="M106.118 517.693L129.222 504.152L152.327 517.016L129.222 530.557L106.118 517.693Z" fill="#797B84"/>
<path d="M129.222 517.354V504.152L152.327 517.016L129.222 530.557V517.354Z" fill="#393A4A"/>
<path d="M101.167 517.355V550.362L129.222 566.865V533.033L101.167 517.355Z" fill="#BDBDBD"/>
<path d="M129.222 533.033L157.278 516.53V549.702L129.222 566.865V533.033Z" fill="#F3F3F3"/>
<path fill-rule="evenodd" clip-rule="evenodd" d="M128.856 530.524L62.2223 492.043L0.0970459 192.08H262.507L196.673 491.116L128.856 530.524Z" fill="url(#paint5_linear_201_5)" fill-opacity="0.8"/>
</g>
<path d="M282.364 500.23L324.025 475.723L365.687 499.005L324.025 523.511L282.364 500.23Z" fill="#06AFFF"/>
<path d="M289.716 500.733L324.025 480.624L358.335 499.727L324.025 519.835L289.716 500.733Z" fill="#0551CA"/>
<path d="M324.025 500.23V480.624L358.335 499.727L324.025 519.835V500.23Z" fill="#052DAC"/>
<path d="M282.364 500.23V549.243L324.025 573.75V523.511L282.364 500.23Z" fill="#2F80ED"/>
<path d="M324.025 523.512L365.687 499.005V548.264L324.025 573.751V523.512Z" fill="#3C8AFE"/>
<path d="M216.583 534.653L258.244 510.146L299.906 533.427L258.244 557.934L216.583 534.653Z" fill="#FF6677"/>
<path d="M223.934 535.156L258.244 515.047L292.553 534.15L258.244 554.258L223.934 535.156Z" fill="#C13647"/>
<path d="M258.244 534.653V515.047L292.554 534.15L258.244 554.258V534.653Z" fill="#A81525"/>
<path d="M216.583 534.653V583.666L258.244 608.173V557.934L216.583 534.653Z" fill="#DE2424"/>
<path d="M258.244 557.935L299.906 533.428V582.686L258.244 608.174V557.935Z" fill="#F32626"/>
<path d="M348.455 534.653L390.117 510.146L431.778 533.427L390.117 557.934L348.455 534.653Z" fill="#FFEE50"/>
<path d="M355.807 535.156L390.117 515.047L424.426 534.15L390.117 554.258L355.807 535.156Z" fill="#FED354"/>
<path d="M390.117 534.653V515.047L424.426 534.15L390.117 554.258V534.653Z" fill="#EEBD43"/>
<path d="M348.455 534.653V583.666L390.117 608.173V557.934L348.455 534.653Z" fill="#DCB616"/>
<path d="M390.117 557.935L431.778 533.428V582.686L390.117 608.174V557.935Z" fill="#FFD215"/>
<path d="M282.364 573.206L324.025 548.699L365.687 571.981L324.025 596.487L282.364 573.206Z" fill="#42E7AA"/>
<path d="M289.716 573.708L324.025 553.6L358.335 572.703L324.025 592.811L289.716 573.708Z" fill="#139565"/>
<path d="M324.025 573.205V553.6L358.335 572.703L324.025 592.811V573.205Z" fill="#117E56"/>
<path d="M282.364 573.206V622.219L324.025 646.726V596.487L282.364 573.206Z" fill="#16A568"/>
<path d="M324.025 596.487L365.687 571.98V621.239L324.025 646.726V596.487Z" fill="#17CE8A"/>
<path fill-rule="evenodd" clip-rule="evenodd" d="M323.481 592.76L224.533 535.619L132.281 90.1889H521.946L424.185 534.242L323.481 592.76Z" fill="url(#paint6_linear_201_5)" fill-opacity="0.8"/>
<path d="M562.219 280.852V244.591C561.074 232.197 554.2 220.418 542.743 209.663V245.923C554.2 256.678 561.074 268.458 562.219 280.852ZM536.871 240.802V204.541C532.861 201.264 528.279 198.088 523.41 195.118V231.378C528.279 234.348 532.718 237.524 536.871 240.802ZM515.104 226.461V190.201C509.805 187.333 504.076 184.465 497.918 181.904V218.165C504.076 220.828 509.805 223.593 515.104 226.461ZM486.462 224.208V166.438C533.148 184.158 562.363 209.56 562.363 237.626V295.397C562.363 267.331 533.291 241.928 486.462 224.208Z" fill="#646D82"/>
<path d="M400.965 196.552V186.104C397.385 185.592 393.805 185.182 390.081 184.772V195.22C393.805 195.527 397.385 196.04 400.965 196.552ZM381.489 183.748V174.529C377.765 174.12 374.042 173.812 370.319 173.505V182.724C374.042 183.133 377.765 183.441 381.489 183.748ZM419.726 188.972V176.475C416.289 175.861 412.852 175.246 409.271 174.734V187.333C412.852 187.845 416.289 188.46 419.726 188.972ZM361.44 182.212V163.569C357.573 163.364 353.849 163.16 349.983 162.955V181.495C353.706 181.802 357.573 181.904 361.44 182.212ZM319.622 181.187V162.545C315.756 162.545 311.746 162.647 307.879 162.75V181.29C311.746 181.29 315.756 181.187 319.622 181.187ZM298.857 181.699V158.345C294.99 158.55 291.267 158.755 287.4 158.96V182.314C291.267 182.109 294.99 181.904 298.857 181.699ZM340.674 181.29V154.555C337.237 154.453 333.657 154.453 330.077 154.351C329.647 154.351 329.217 154.351 328.788 154.351V181.085C329.217 181.085 329.647 181.085 330.077 181.085C333.657 181.187 337.237 181.187 340.674 181.29ZM278.665 183.031V149.639C274.941 149.946 271.218 150.253 267.637 150.663V184.055C271.218 183.748 274.941 183.338 278.665 183.031ZM243.721 146.771C270.645 142.674 299.716 140.523 330.077 140.727C370.605 141.035 408.699 145.439 441.637 153.121V210.892C408.555 203.312 370.605 198.805 330.077 198.498C299.716 198.293 270.502 200.444 243.721 204.541V146.771Z" fill="#646D82"/>
<path d="M94.9271 239.545V252.349C99.3056 243.778 102.517 241.594 106.384 236.281C111.664 230.993 114.26 228.291 120.562 224.194C126.863 220.097 156.078 203.606 180.137 195.923V184.656C175.84 185.988 171.687 187.422 167.677 188.958C165.673 189.675 163.668 190.495 161.663 191.212C141.9 198.279 121.85 212.005 121.85 212.005C121.85 212.005 98.2209 227.766 94.9271 239.545ZM91.7765 224.706C100.942 196.538 139.608 172.262 194.314 157.103V214.873C139.608 230.033 100.942 254.308 91.7765 282.477V224.706Z" fill="#646D82"/>
<path d="M95.151 239.47V252.273C99.5296 243.702 102.741 241.518 106.608 236.205C111.888 230.918 114.484 228.216 120.785 224.119C127.087 220.021 156.301 203.53 180.361 195.848V184.581C176.064 185.912 171.911 187.346 167.901 188.883C165.896 189.6 163.892 190.419 161.887 191.136C142.124 198.204 122.074 211.929 122.074 211.929C122.074 211.929 98.4448 227.69 95.151 239.47Z" fill="#42E7AA"/>
<path opacity="0.7529" d="M543.776 209.512C555.233 220.267 562.107 232.046 563.253 244.44V280.701C562.107 268.307 555.233 256.527 543.776 245.772V209.512Z" fill="#42E7AA"/>
<path d="M524.443 194.865C529.312 197.938 533.894 201.113 537.904 204.288V240.548C533.894 237.271 529.312 234.095 524.443 231.125V194.865Z" fill="#42E7AA"/>
<path opacity="0.7529" d="M498.952 181.754C504.967 184.417 510.695 187.183 516.137 190.051V226.311C510.838 223.443 505.11 220.575 498.952 218.014V181.754Z" fill="#42E7AA"/>
<path d="M409.272 175.281C412.709 175.793 416.289 176.407 419.726 177.022V189.621C416.289 189.006 412.852 188.392 409.272 187.88V175.281Z" fill="#42E7AA"/>
<path opacity="0.7529" d="M390.225 185.216C393.805 185.626 397.529 186.138 401.109 186.548V196.996C397.529 196.483 393.949 196.074 390.225 195.664V185.216Z" fill="#42E7AA"/>
<path d="M370.319 174.153C374.043 174.461 377.766 174.768 381.49 175.178V184.396C377.766 183.987 374.043 183.679 370.319 183.372V174.153Z" fill="#42E7AA"/>
<path opacity="0.7529" d="M349.84 163.13C353.706 163.335 357.573 163.437 361.297 163.744V182.284C357.43 182.079 353.706 181.875 349.84 181.67V163.13Z" fill="#42E7AA"/>
<path opacity="0.7529" d="M328.932 154.423C329.361 154.423 329.791 154.423 330.221 154.423C333.801 154.423 337.238 154.526 340.818 154.628V181.362C337.381 181.26 333.801 181.26 330.221 181.158C329.791 181.158 329.361 181.158 328.932 181.158V154.423Z" fill="#42E7AA"/>
<path d="M307.879 162.925C311.746 162.823 315.612 162.721 319.622 162.721V181.26C315.756 181.26 311.746 181.363 307.879 181.465V162.925Z" fill="#42E7AA"/>
<path opacity="0.7529" d="M287.544 159.135C291.268 158.93 295.134 158.623 299.001 158.521V181.772C295.134 181.977 291.411 182.182 287.544 182.387V159.135Z" fill="#42E7AA"/>
<path d="M267.495 150.736C271.218 150.327 274.798 150.019 278.522 149.712V183.104C274.798 183.411 271.075 183.719 267.495 184.128V167.432V150.736Z" fill="#42E7AA"/>
<path d="M165.243 384.895V375.165C167.964 376.189 170.828 377.213 173.692 378.237V387.968C170.828 386.944 168.107 385.92 165.243 384.895ZM138.463 372.706V354.679C140.754 355.908 143.045 357.137 145.48 358.264V376.291C143.045 375.062 140.754 373.833 138.463 372.706ZM151.208 378.954V357.751C153.786 358.878 156.364 360.005 158.942 361.132V382.335C156.364 381.208 153.786 380.081 151.208 378.954ZM116.838 358.776V335.217C118.557 336.548 120.418 337.983 122.28 339.314V362.873C120.418 361.439 118.7 360.107 116.838 358.776ZM127.006 365.946V340.441C129.011 341.772 131.159 343.002 133.307 344.231V369.736C131.016 368.507 129.011 367.175 127.006 365.946ZM101.228 343.309V315.653C102.374 317.189 103.663 318.623 104.952 320.057V347.713C103.663 346.279 102.517 344.845 101.228 343.309ZM108.245 351.196V315.243C109.678 316.677 111.253 318.111 112.828 319.545V355.498C111.253 354.064 109.821 352.63 108.245 351.196ZM95.9294 335.217V294.552C96.7887 296.089 97.648 297.625 98.7936 299.162V339.724C97.648 338.29 96.7887 336.753 95.9294 335.217ZM190.877 344.231C136.887 328.661 99.6529 304.078 91.7764 275.91V333.68C99.6529 361.849 136.887 386.432 190.877 402.001V344.231Z" fill="#3F4658"/>
<path d="M349.267 408.556V395.547C358.575 395.137 367.741 394.625 376.62 393.806V406.814C367.741 407.634 358.575 408.146 349.267 408.556ZM305.588 408.658V384.894C311.173 385.099 316.758 385.202 322.486 385.304C326.353 385.304 330.22 385.304 334.086 385.304V409.068C330.22 409.068 326.353 409.17 322.486 409.068C316.758 408.965 311.173 408.863 305.588 408.658ZM263.484 405.483V369.223C272.22 370.247 281.242 370.964 290.551 371.579V407.839C281.385 407.327 272.363 406.507 263.484 405.483ZM391.084 405.38V366.969C399.819 365.945 408.412 364.716 416.718 363.384V401.693C408.412 403.127 399.819 404.356 391.084 405.38ZM438.2 350.478C403.829 358.058 364.304 362.258 322.486 361.95C293.272 361.745 265.489 359.389 239.854 355.19V412.96C265.489 417.057 293.272 419.516 322.486 419.721C364.304 420.028 403.829 415.828 438.2 408.248V350.478Z" fill="#3F4658"/>
<path d="M496.2 366.97V355.805C533.865 339.928 558.353 318.725 562.363 295.064V306.229C558.353 329.89 533.865 351.093 496.2 366.97ZM562.936 324.461V266.691C561.79 294.962 531.144 320.159 483.455 337.572V395.343C531.287 377.93 561.79 352.63 562.936 324.461Z" fill="#3F4658"/>
<path d="M562.363 295.064C558.353 318.623 533.864 339.929 496.2 355.805V366.97C533.864 351.093 558.353 329.89 562.363 306.229V295.064Z" fill="#F3F3F3"/>
<path d="M290.551 371.578C281.386 370.963 272.364 370.246 263.485 369.222V405.482C272.221 406.506 281.243 407.223 290.551 407.838V371.578Z" fill="#F3F3F3"/>
<path d="M376.62 393.806C367.598 394.625 358.575 395.138 349.267 395.547V408.556C358.575 408.146 367.741 407.634 376.62 406.815V393.806Z" fill="#F3F3F3"/>
<path d="M416.718 362.974C408.412 364.408 399.819 365.637 391.083 366.559V404.868C399.819 403.844 408.412 402.615 416.718 401.283V362.974Z" fill="#F3F3F3"/>
<path opacity="0.7529" d="M334.087 385.201C330.221 385.201 326.354 385.304 322.487 385.201C316.759 385.201 311.174 384.996 305.589 384.792V408.555C311.174 408.76 316.759 408.863 322.487 408.965C326.354 408.965 330.221 408.965 334.087 408.965V385.201Z" fill="#F3F3F3"/>
<path d="M98.7935 299.365C97.791 297.829 96.7886 296.293 95.9293 294.756V335.318C96.7886 336.855 97.6478 338.391 98.7935 339.928V299.365Z" fill="#F3F3F3"/>
<path d="M104.951 320.363C103.662 318.929 102.374 317.393 101.228 315.959V343.615C102.374 345.151 103.662 346.585 104.951 348.019V320.363Z" fill="#F3F3F3"/>
<path opacity="0.7529" d="M112.971 319.749C111.396 318.315 109.821 316.881 108.389 315.447V351.4C109.821 352.834 111.396 354.268 112.971 355.702V319.749Z" fill="#F3F3F3"/>
<path d="M122.423 339.416C120.561 338.084 118.699 336.752 116.981 335.318V358.877C118.699 360.209 120.561 361.643 122.423 362.974V339.416Z" fill="#F3F3F3"/>
<path d="M133.164 344.434C131.015 343.205 128.867 341.874 126.862 340.645V366.15C128.867 367.481 131.015 368.71 133.164 369.939V344.434Z" fill="#F3F3F3"/>
<path opacity="0.7529" d="M145.48 358.467C143.045 357.34 140.754 356.111 138.463 354.882V372.91C140.754 374.139 143.045 375.368 145.48 376.495V358.467Z" fill="#F3F3F3"/>
<path d="M158.941 361.336C156.363 360.209 153.785 359.082 151.207 357.955V379.158C153.785 380.285 156.363 381.412 158.941 382.539V361.336Z" fill="#F3F3F3"/>
<path opacity="0.7529" d="M173.692 378.339C170.828 377.315 168.107 376.291 165.243 375.266V384.997C167.964 386.022 170.828 387.046 173.692 388.07V378.339Z" fill="#F3F3F3"/>
<defs>
<linearGradient id="paint0_linear_201_5" x1="514.161" y1="286.659" x2="514.161" y2="531.925" gradientUnits="userSpaceOnUse">
<stop stop-color="white" stop-opacity="0"/>
<stop offset="0.862563" stop-color="#C4C4C4" stop-opacity="0.43"/>
<stop offset="1" stop-color="#C4C4C4" stop-opacity="0"/>
</linearGradient>
<linearGradient id="paint1_linear_201_5" x1="318.64" y1="95.2684" x2="318.64" y2="340.534" gradientUnits="userSpaceOnUse">
<stop stop-color="white" stop-opacity="0"/>
<stop offset="0.862563" stop-color="#C4C4C4" stop-opacity="0.43"/>
<stop offset="1" stop-color="#C4C4C4" stop-opacity="0"/>
</linearGradient>
<linearGradient id="paint2_linear_201_5" x1="315.886" y1="201.29" x2="315.886" y2="446.556" gradientUnits="userSpaceOnUse">
<stop stop-color="white" stop-opacity="0"/>
<stop offset="0.862563" stop-color="#C4C4C4" stop-opacity="0.43"/>
<stop offset="1" stop-color="#C4C4C4" stop-opacity="0"/>
</linearGradient>
<linearGradient id="paint3_linear_201_5" x1="132.757" y1="157.229" x2="132.757" y2="402.495" gradientUnits="userSpaceOnUse">
<stop stop-color="white" stop-opacity="0"/>
<stop offset="0.862563" stop-color="#C4C4C4" stop-opacity="0.43"/>
<stop offset="1" stop-color="#C4C4C4" stop-opacity="0"/>
</linearGradient>
<linearGradient id="paint4_linear_201_5" x1="487.999" y1="157.229" x2="487.999" y2="402.495" gradientUnits="userSpaceOnUse">
<stop stop-color="white" stop-opacity="0"/>
<stop offset="0.862563" stop-color="#C4C4C4" stop-opacity="0.43"/>
<stop offset="1" stop-color="#C4C4C4" stop-opacity="0"/>
</linearGradient>
<linearGradient id="paint5_linear_201_5" x1="121.742" y1="286.659" x2="121.742" y2="531.925" gradientUnits="userSpaceOnUse">
<stop stop-color="white" stop-opacity="0"/>
<stop offset="0.862563" stop-color="#C4C4C4" stop-opacity="0.43"/>
<stop offset="1" stop-color="#C4C4C4" stop-opacity="0"/>
</linearGradient>
<linearGradient id="paint6_linear_201_5" x1="312.917" y1="230.634" x2="312.917" y2="594.841" gradientUnits="userSpaceOnUse">
<stop stop-color="white" stop-opacity="0"/>
<stop offset="0.862563" stop-color="#C4C4C4" stop-opacity="0.43"/>
<stop offset="1" stop-color="#C4C4C4" stop-opacity="0"/>
</linearGradient>
</defs>
</svg>
